<svg width="116" height="43" viewBox="0 0 116 43" fill="none" xmlns="http://www.w3.org/2000/svg">
<g clip-path="url(#clip0_186_10)">
<path d="M2.96326 29H4.99126V23.072C4.99126 20.29 6.13526 18.392 8.76127 18.392C10.6593 18.392 11.5433 19.666 11.5433 21.694V29H13.5713V21.486C13.5713 18.548 12.1413 16.52 8.94327 16.52C7.04526 16.52 5.58926 17.56 5.04327 18.522H4.99126V9.344H2.96326V29ZM26.7445 25.594C25.7825 26.816 24.6125 27.44 22.8705 27.44C20.6605 27.44 19.0485 25.646 18.8925 23.54H28.7205V22.89C28.7205 18.86 26.3805 16.52 22.9485 16.52C19.3605 16.52 16.7085 19.146 16.7085 22.916C16.7085 26.452 19.0485 29.312 22.8705 29.312C25.1325 29.312 26.8485 28.636 28.2785 26.79L26.7445 25.594ZM18.8925 21.824C19.1525 19.77 20.6345 18.392 22.8705 18.392C25.1065 18.392 26.4585 19.77 26.5365 21.824H18.8925ZM41.9718 29H43.9998V9.344H41.9718V18.6H41.9198C40.8018 17.3 39.3198 16.52 37.5518 16.52C33.7298 16.52 31.1558 19.224 31.1558 22.916C31.1558 26.556 33.8338 29.312 37.2398 29.312C39.4238 29.312 41.1658 28.22 41.9198 26.842H41.9718V29ZM41.9718 22.916C41.9718 25.464 40.2818 27.44 37.6558 27.44C35.0298 27.44 33.3398 25.464 33.3398 22.916C33.3398 20.368 35.0298 18.392 37.6558 18.392C40.2818 18.392 41.9718 20.368 41.9718 22.916ZM59.8943 16.832H57.8663V18.912H57.8143C57.0083 17.3 55.1623 16.52 53.5243 16.52C49.6503 16.52 47.0503 18.938 47.0503 22.916C47.0503 26.504 49.7023 29.156 53.5243 29.156C55.1363 29.156 56.8523 28.454 57.8143 26.894H57.8663V28.454C57.8663 31.028 56.9043 33.368 53.2643 33.368C51.3923 33.368 50.0143 32.64 48.7403 31.262L47.2843 32.926C49.0003 34.616 50.8983 35.24 53.2643 35.24C57.5283 35.24 59.8943 32.848 59.8943 28.454V16.832ZM49.2343 22.916C49.2343 20.368 50.9763 18.392 53.5243 18.392C56.0983 18.392 57.8663 20.238 57.8663 22.864C57.8663 25.204 56.3063 27.284 53.5243 27.284C51.1583 27.284 49.2343 25.386 49.2343 22.916ZM72.9809 25.594C72.0189 26.816 70.8489 27.44 69.1069 27.44C66.8969 27.44 65.2849 25.646 65.1289 23.54H74.9569V22.89C74.9569 18.86 72.6169 16.52 69.1849 16.52C65.5969 16.52 62.9449 19.146 62.9449 22.916C62.9449 26.452 65.2849 29.312 69.1069 29.312C71.3689 29.312 73.0849 28.636 74.5149 26.79L72.9809 25.594ZM65.1289 21.824C65.3889 19.77 66.8709 18.392 69.1069 18.392C71.3429 18.392 72.6949 19.77 72.7729 21.824H65.1289Z" fill="white"/>
<path d="M78.0941 29H80.1221V23.072C80.1221 20.29 81.2661 18.392 83.8921 18.392C85.7901 18.392 86.6741 19.666 86.6741 21.694V29H88.7021V21.486C88.7021 18.548 87.2721 16.52 84.0741 16.52C82.0721 16.52 80.5641 17.638 80.0181 18.834H79.9661C79.9661 18.158 79.9141 17.482 79.9141 16.832H77.9901C77.9901 17.638 78.0941 18.6 78.0941 19.718V29ZM101.875 25.594C100.913 26.816 99.7434 27.44 98.0014 27.44C95.7914 27.44 94.1794 25.646 94.0234 23.54H103.851V22.89C103.851 18.86 101.511 16.52 98.0794 16.52C94.4914 16.52 91.8394 19.146 91.8394 22.916C91.8394 26.452 94.1794 29.312 98.0014 29.312C100.263 29.312 101.979 28.636 103.409 26.79L101.875 25.594ZM94.0234 21.824C94.2834 19.77 95.7654 18.392 98.0014 18.392C100.237 18.392 101.589 19.77 101.667 21.824H94.0234ZM113.645 16.832H110.057V13.374H108.029V16.832H105.377V18.548H108.029V25.23C108.029 27.752 108.497 29.312 111.383 29.312C112.137 29.312 113.047 29.182 113.749 28.87L113.671 27.024C113.125 27.31 112.475 27.44 111.877 27.44C110.083 27.44 110.057 26.192 110.057 24.632V18.548H113.645V16.832Z" fill="#00FFA4"/>
<path d="M45.8704 14.625L63.6878 0.75" stroke="white" stroke-width="2" stroke-linecap="round"/>
<path d="M59.3781 8L72.0411 2" stroke="white" stroke-width="2" stroke-linecap="round"/>
<path d="M65.7096 10L75.0967 7.75" stroke="white" stroke-width="2" stroke-linecap="round"/>
<path d="M67.7314 14L74.8079 15" stroke="white" stroke-width="2" stroke-linecap="round"/>
<ellipse cx="55.6005" cy="13" rx="1.01092" ry="1" fill="#00FFA4"/>
</g>
<defs>
<clipPath id="clip0_186_10">
<rect width="115.245" height="43" fill="white"/>
</clipPath>
</defs>
</svg>
